<?xml version="1.0"?>
<svg xmlns="http://www.w3.org/2000/svg" width="78" height="78" viewBox="0 0 78 78">
    <path fill="#FFF" fill-rule="nonzero" d="M36.195.485c-9.002.831-17.142 5-22.912 11.75-4.576 5.346-7.567 12.46-7.99 18.97-.06.815-.15 1.54-.196 1.615-.045.06-.362.257-.694.423-1.51.77-3.051 3.05-3.73 5.512C.385 39.844.34 40.387.34 42.381c.015 2.099.06 2.477.423 3.7.755 2.507 2.084 4.38 3.746 5.287.785.438.86.453 3.217.498l2.431.06.362.665c.801 1.51 2.507 2.537 4.23 2.537 1.827 0 3.654-1.163 4.394-2.809l.363-.8V32.941l-.408-.77c-.604-1.148-1.058-1.616-2.114-2.19-.861-.452-1.073-.498-2.236-.513-1.117 0-1.39.06-2.069.423-.951.498-1.752 1.253-2.16 2.069l-.302.604H8.375l.105-1.178c.528-5.89 2.96-11.81 6.75-16.447l.922-1.133 1.979 1.963c1.087 1.073 2.13 2.04 2.31 2.13.71.362 1.315.212 2.327-.604 3.141-2.537 6.765-4.229 10.95-5.12 1.933-.407 6.191-.573 8.306-.316 4.909.604 9.319 2.446 13.034 5.436 1.012.816 1.616.967 2.326.604.181-.09 1.224-1.057 2.311-2.13l1.979-1.963.906 1.118c3.927 4.863 6.208 10.406 6.782 16.538l.105 1.102H67.61l-.303-.604c-.407-.816-1.208-1.57-2.16-2.07-.679-.361-.966-.422-2.068-.422-1.058 0-1.42.076-2.039.378-.967.468-1.873 1.374-2.34 2.34l-.379.756v9.212c0 10.406-.045 10.043 1.178 11.373.8.86 1.632 1.329 2.764 1.54 1.586.303 3.217-.256 4.35-1.525.302-.333.664-.846.8-1.133.256-.529.256-.529 1.177-.484l.906.046v3.171c0 2.07-.075 3.534-.211 4.23-1.103 5.572-5.09 9.892-10.527 11.417-1.057.302-1.646.347-5.044.393l-3.851.06-.288-.619c-.362-.77-1.405-1.737-2.326-2.16-.694-.317-.876-.332-6.75-.332h-6.042l-.86.423c-.937.453-1.738 1.254-2.266 2.25-.287.544-.347.877-.347 2.085 0 1.207.06 1.54.347 2.084.528.997 1.33 1.797 2.265 2.25l.86.423h6.042c5.876 0 6.057-.015 6.751-.332.907-.408 1.948-1.374 2.311-2.13l.288-.588 3.715-.091c4.637-.105 6.253-.408 8.986-1.706 3.76-1.767 7.114-5.24 8.76-9.077 1.102-2.553 1.434-4.576 1.434-8.88V51.67l.68-.362c1.57-.83 3.051-3.035 3.73-5.527.438-1.647.469-5.226.061-6.797-.649-2.54-2.25-4.956-3.79-5.741-.77-.393-.83-.469-.83-1.315 0-2.054-.907-6.403-1.889-9.107-4.2-11.63-14.182-19.921-26.43-21.99-1.767-.286-6.449-.497-8.08-.347zm5.074 3.232C45.725 4.08 50.18 5.44 53.94 7.6c1.374.785 3.76 2.462 4.728 3.323l.65.574-1.405 1.39-1.405 1.374-1.57-1.042c-4.728-3.142-9.999-4.682-16.025-4.682-5.951 0-11.313 1.556-15.859 4.576-.786.514-1.51.997-1.6 1.058-.091.06-.756-.499-1.556-1.3l-1.405-1.404 1.148-.936c4.757-3.897 10.723-6.313 16.78-6.797 2.22-.182 2.703-.182 4.848-.016zM15.428 32.806c.997.468.982.332.982 9.409 0 8.79-.015 8.895-.77 9.44-.453.317-1.33.317-1.782 0-.755-.545-.77-.65-.77-9.44 0-9.032-.015-8.926.95-9.41.605-.302.77-.302 1.39 0zm48.33 0c.997.468.982.332.982 9.409 0 8.79-.015 8.895-.77 9.44-.453.317-1.33.317-1.782 0-.755-.545-.77-.65-.77-9.44 0-9.032-.015-8.926.951-9.41.603-.302.77-.302 1.389 0zm-53.843 9.5v6.418H8.178c-1.903 0-2.265-.106-2.96-.86-2.114-2.266-2.31-7.96-.362-10.693.83-1.178 1.072-1.283 3.217-1.283h1.842v6.417zm62.119-6.133c2.311 1.511 3.051 7.145 1.375 10.482-.877 1.752-1.435 2.07-3.76 2.07H67.91V35.888h1.858c1.54-.001 1.918.044 2.265.285zM46.48 71.801c.513.574.589 1.405.197 1.98-.514.724-.906.77-6.177.77-5.422 0-5.754-.047-6.177-.892-.302-.574-.302-.966 0-1.54.438-.86.665-.892 6.449-.846l5.271.03.437.498z"/>
</svg>
