<?xml version="1.0"?>
<svg xmlns="http://www.w3.org/2000/svg" width="50" height="76" viewBox="0 0 50 76">
    <path fill="#FFF" fill-rule="nonzero" d="M44.015 44.05c-.85.252-2.343 1.148-3.099 1.856-.44.409-2.437 2.469-4.434 4.592-4.277 4.513-4.167 4.403-4.701 4.403-.52.015-4.891-1.29-4.812-1.432.047-.047.377-.14.74-.204 1.021-.158 3.254-.865 4.104-1.29 2.626-1.336 3.38-3.71 1.714-5.456-.44-.472-1.557-1.1-2.233-1.258-.22-.063-4.45-.252-9.388-.425-9.608-.346-9.671-.346-11.008.393-.85.472-9.357 7.5-9.97 8.24C0 54.585 0 54.679 0 64.916c0 7.706.031 9.436.22 9.876.283.66 1.038 1.085 1.746.96.55-.11.55-.095 5.236-4.215 2.265-1.981 3.555-3.02 4.01-3.177.393-.141 5.016-.676 11.747-1.352 11.558-1.18 11.715-1.195 12.895-2.045.566-.409 13.004-15.348 13.413-16.134.66-1.21.488-2.468-.503-3.569-.833-.928-1.887-1.368-3.24-1.353-.598.001-1.29.064-1.51.143zm2.799 2.61c.283.22.519.519.519.676 0 .441-12.612 15.6-13.257 15.946-.409.204-2.877.503-11.291 1.368-5.913.597-11.102 1.163-11.542 1.258-1.384.299-2.076.77-5.442 3.711-1.808 1.589-3.333 2.894-3.365 2.894-.047 0-.079-3.758-.079-8.334 0-6.683.047-8.445.22-8.853.268-.63 9.105-7.958 9.954-8.256.456-.158 2.218-.126 9.372.125 8.13.299 8.838.347 9.42.645.33.173.645.409.707.55.268.725-1.541 1.793-4.12 2.423-1.132.283-4.45 1.415-6.998 2.39-.346.126.299.41 4.796 2.107 5.598 2.091 6.149 2.218 7.454 1.698.472-.189 1.73-1.4 5.063-4.875 5.222-5.472 5.693-5.85 7.282-5.865.599-.017.897.078 1.307.392zM41.309 0H8.57L.492 12.662v28.283H49.06V12.672L41.309 0zm-1.065 1.903l6.402 10.477H28.993l-.807-10.477h12.058zM21.44 14.283h5.714v8.569h-5.714v-8.57zm4.837-12.38l.808 10.477H21.52l.808-10.477h3.95zm-16.662 0h10.799l-.808 10.477H2.931L9.616 1.903zm-7.22 37.14v-24.76h17.137V24.76h9.525V14.283h18.094v24.76H2.395zm41.901-11.429h-6.665a.952.952 0 0 0 0 1.903h6.665a.952.952 0 0 0 0-1.903zm0 3.811h-13.33a.952.952 0 0 0 0 1.903h13.33a.952.952 0 0 0 0-1.903zm0 3.806H35.73a.952.952 0 0 0 0 1.903h8.568a.952.952 0 0 0 0-1.903z"/>
</svg>
