<?xml version="1.0"?>
<svg xmlns="http://www.w3.org/2000/svg" width="76" height="61" viewBox="0 0 76 61">
    <path fill="#FFF" fill-rule="nonzero" d="M25.369 16.246c-.43 0-.852-.208-1.113-.591l-4.12-6.04a1.345 1.345 0 0 1 .352-1.872 1.345 1.345 0 0 1 1.873.353l4.12 6.04c.423.613.262 1.457-.352 1.872a1.288 1.288 0 0 1-.76.238zm8.787-1.374c-.653 0-1.22-.468-1.328-1.128l-1.926-11.81a1.353 1.353 0 0 1 1.113-1.55 1.353 1.353 0 0 1 1.55 1.112l1.926 11.81a1.353 1.353 0 0 1-1.113 1.55c-.077.016-.153.016-.222.016zm8.786 0c-.061 0-.122 0-.184-.015a1.35 1.35 0 0 1-1.15-1.52l1.649-11.81a1.35 1.35 0 0 1 2.67.368l-1.65 11.818a1.34 1.34 0 0 1-1.335 1.159zm8.242 1.374c-.245 0-.499-.07-.729-.215a1.343 1.343 0 0 1-.407-1.865l4.666-7.275a1.357 1.357 0 0 1 1.865-.407 1.35 1.35 0 0 1 .407 1.865l-4.666 7.283c-.26.399-.69.614-1.136.614zM9.983 46.19c-.13 0-.261-.016-.384-.054l-8.242-2.479a1.335 1.335 0 0 1-.813-.683 1.34 1.34 0 0 1-.07-1.059l8.242-23.068a1.36 1.36 0 0 1 1.826-.775l7.966 3.568c.53.238.852.79.79 1.366C18.187 34.18 11.426 45.1 11.135 45.56c-.254.392-.691.63-1.151.63zM3.49 41.485l5.87 1.758c1.543-2.686 6.025-11.082 7.138-19.554l-5.733-2.57L3.49 41.485zm62.528 4.705a1.36 1.36 0 0 1-1.082-.538c-7.513-10.022-9.769-21.226-9.861-21.702a1.347 1.347 0 0 1 .599-1.396l6.868-4.398c.322-.207.713-.26 1.082-.168.368.1.675.353.852.69l10.989 21.695c.169.322.192.706.069 1.051s-.376.63-.706.783l-8.242 3.844a1.264 1.264 0 0 1-.568.139zM57.93 24.31c.66 2.701 3.023 11.12 8.518 18.832l5.97-2.786-9.677-19.123-4.811 3.077zm.667 24.073c-.33 0-.66-.122-.92-.36-6.232-5.81-16.546-15.31-17.674-16.054-.644-.422-1.872-.254-2.686-.023-.69 1.358-2.609 4.604-5.556 5.41-2.049.56-3.814.307-4.957-.706-.898-.79-1.305-1.98-1.12-3.254.253-1.757 1.335-3.054 1.972-3.684.138-1.128.545-3.437 1.65-4.704 1.48-1.696 6.139-4.382 6.66-4.68.093-.055.185-.093.292-.124.207-.061 5.173-1.488 8.864.046 2.478 1.036 4.09 2.08 4.827 2.61l6.354-.507a1.357 1.357 0 0 1 1.45 1.236 1.344 1.344 0 0 1-1.235 1.45l-6.869.553a1.376 1.376 0 0 1-.974-.307c-.016-.008-1.566-1.274-4.597-2.54-2.517-1.044-6.162-.185-6.922.007-1.857 1.067-4.95 3.031-5.824 4.029-.568.652-.952 2.548-1.044 3.691-.03.376-.215.722-.514.952-.008.007-1.228 1.005-1.42 2.348-.054.376.023.668.238.852.338.3 1.159.483 2.463.13 1.957-.537 3.63-3.46 4.068-4.45.145-.323.406-.584.736-.714.346-.138 3.461-1.305 5.633.13C43.019 30.734 55.159 42 58.705 45.3l5.026-3.652a1.352 1.352 0 0 1 1.589 2.187l-5.925 4.312a1.492 1.492 0 0 1-.798.238zm-27.05-22.247c-.039 0-.077 0-.108-.007l-13.598-1.098a1.348 1.348 0 0 1-1.236-1.45 1.334 1.334 0 0 1 1.45-1.236l13.599 1.098a1.348 1.348 0 0 1-.108 2.693zm25.539 27.067c-1.428 0-2.825-.683-3.676-1.297-.031-.023-.054-.046-.085-.07L41.24 41.463a1.35 1.35 0 1 1 1.757-2.049l12.033 10.33c.253.168 2.018 1.289 2.893.422.898-.89-.177-2.072-.3-2.203a1.346 1.346 0 1 1 1.95-1.857c1.22 1.282 2.294 3.937.245 5.97-.813.83-1.78 1.129-2.731 1.129zm-4.82 4.097c-.997 0-2.187-.383-3.576-1.488-1.895-1.52-12.201-10.468-12.639-10.851a1.349 1.349 0 1 1 1.773-2.034c.107.092 10.697 9.293 12.554 10.782 1.827 1.458 2.48.806 2.87.414 1.021-1.028.031-2.31-.092-2.448a1.35 1.35 0 0 1 .192-1.895 1.35 1.35 0 0 1 1.896.192c.92 1.136 2.095 3.86-.092 6.055-.576.583-1.55 1.273-2.886 1.273zm-6.085 2.38c-1.443 0-2.763-.745-3.492-1.382l-5.755-4.78a1.343 1.343 0 0 1-.177-1.896 1.343 1.343 0 0 1 1.896-.177l5.778 4.804c.292.253 1.72 1.35 2.793.215.783-.829-.314-2.133-.36-2.195a1.34 1.34 0 0 1 .146-1.895 1.347 1.347 0 0 1 1.895.13c.96 1.098 2.256 3.73.292 5.817-.952.998-2.01 1.358-3.016 1.358zm-6.661.682c-1.704 0-3.876-.621-6.5-2.593a1.347 1.347 0 0 1-.269-1.888 1.347 1.347 0 0 1 1.888-.269c4.973 3.73 7.183 1.274 7.267 1.167a1.363 1.363 0 0 1 1.896-.17c.568.469.66 1.298.2 1.866-.024.038-1.558 1.887-4.482 1.887zm-11.987-3.03a4.32 4.32 0 0 1-2.448-.768 4.281 4.281 0 0 1-1.06-5.955l1.95-2.801a4.29 4.29 0 0 1 5.963-1.067 4.252 4.252 0 0 1 1.765 2.755 4.23 4.23 0 0 1-.706 3.2l-1.95 2.801a4.27 4.27 0 0 1-3.514 1.834zm1.957-8.657c-.514 0-1.005.253-1.297.675l-1.95 2.801a1.585 1.585 0 0 0 .392 2.203c.69.483 1.72.291 2.203-.392l1.949-2.8a1.61 1.61 0 0 0 .26-1.183 1.601 1.601 0 0 0-.652-1.02 1.601 1.601 0 0 0-.905-.284zm-6.922 5.81c-.852 0-1.673-.262-2.371-.745a4.167 4.167 0 0 1-1.036-5.786l1.465-2.11a4.16 4.16 0 0 1 7.506 1.641 4.142 4.142 0 0 1-.683 3.108l-1.466 2.11a4.161 4.161 0 0 1-3.415 1.781zm1.473-7.72c-.475 0-.928.23-1.197.62l-1.466 2.111c-.46.66-.299 1.573.361 2.034.637.445 1.589.276 2.034-.361l1.465-2.11c.223-.323.307-.706.238-1.09a1.454 1.454 0 0 0-.606-.944 1.454 1.454 0 0 0-.829-.26zm-5.863 4.557c-.767 0-1.511-.23-2.148-.675a3.747 3.747 0 0 1-1.55-2.425 3.753 3.753 0 0 1 .613-2.809l.96-1.38a3.767 3.767 0 0 1 3.085-1.612 3.754 3.754 0 0 1 3.077 5.901l-.96 1.381a3.74 3.74 0 0 1-3.077 1.62zm.967-6.2c-.345 0-.675.169-.867.453l-.96 1.38a1.05 1.05 0 0 0 .26 1.473c.47.324 1.153.2 1.475-.26l.96-1.38a1.058 1.058 0 0 0-.868-1.666zm12.908 14.565c-.767 0-1.504-.23-2.133-.668a3.738 3.738 0 0 1-.929-5.195l1.642-2.356a3.741 3.741 0 0 1 5.196-.928 3.704 3.704 0 0 1 1.542 2.41 3.723 3.723 0 0 1-.614 2.793l-1.634 2.348a3.766 3.766 0 0 1-3.07 1.596zm1.642-7.114c-.337 0-.66.17-.852.445l-1.634 2.349a1.035 1.035 0 0 0 .253 1.442c.453.315 1.128.192 1.443-.26l1.634-2.349c.161-.23.215-.499.17-.775a1.026 1.026 0 0 0-.43-.668.993.993 0 0 0-.584-.184zM15.546 47.58c-.23 0-.46-.062-.675-.185l-4.766-2.755a1.345 1.345 0 0 1-.49-1.841 1.345 1.345 0 0 1 1.84-.492l4.766 2.755c.645.376.868 1.198.492 1.842-.246.43-.699.676-1.167.676z"/>
</svg>
