<?xml version="1.0"?>
<svg xmlns="http://www.w3.org/2000/svg" width="78" height="78" viewBox="0 0 78 78">
    <path fill="#FFF" fill-rule="evenodd" d="M38.66 77.32C17.309 77.32 0 60.01 0 38.66 0 17.309 17.309 0 38.66 0 60.01 0 77.32 17.309 77.32 38.66c0 21.351-17.309 38.66-38.66 38.66zm0-2.32C58.73 75 75 58.73 75 38.66 75 18.59 58.73 2.32 38.66 2.32c-20.07 0-36.34 16.27-36.34 36.34C2.32 58.73 18.59 75 38.66 75zM21.949 51.831h18.223c2.01-.182 3.928-1.005 5.755-2.468 3.745-2.924 5.527-6.763 5.344-11.516-1.096-6.856-4.978-10.786-11.647-11.792l1.37 1.509c.457.64.457 1.096 0 1.37-.456.275-1.004.046-1.644-.685l-2.734-2.605c-.278-.548-.189-1.051.268-1.508l3.014-3.016c.457-.366.868-.366 1.234 0 .365.365.365.73 0 1.096l-1.919 2.194c5.755.366 9.911 3.2 12.469 8.5 2.466 6.49 1.233 12.203-3.7 17.139-2.923 2.65-7.079 3.885-12.468 3.702-5.39-.183-9.911-.183-13.565 0-.64-.05-.96-.37-.96-.96 0-.64.32-.96.96-.96zM33.16 27.11c-5.554 2.414-8.566 5.722-9.037 9.923-.847 5.454 1.271 9.968 6.354 13.544h-2.824c-4.142-3.576-5.93-7.912-5.365-13.007.564-5.185 3.812-9.164 9.743-11.935l1.13 1.475zm11.773 27.277l3.2-1.548h5.87l-1.735-1.677c-.622-.43-.711-.86-.266-1.29.444-.43.933-.386 1.467.13l2.8 2.58c.8.601.845 1.203.134 1.805l-2.934 2.71c-.534.515-.978.601-1.334.257-.356-.344-.356-.73 0-1.16l1.734-1.807h-8.936z"/>
</svg>
