<?xml version="1.0"?>
<svg xmlns="http://www.w3.org/2000/svg" width="84" height="78" viewBox="0 0 84 78">
    <path fill="#FFF" fill-rule="evenodd" d="M20.322.5c4.009-.447 8.727.392 11.486 2.072 2.164 1.305 5.501 4.699 8.354 8.466.933 1.231 1.734 2.238 1.809 2.238.075 0 .895-1.008 1.827-2.238 2.853-3.767 5.482-6.508 7.832-8.15C55.826-.02 63.92-.449 69.252 1.975c2.35 1.044 4.4 2.554 6.75 4.94 6.732 6.77 9.137 14.62 6.881 22.434-.876 3.058-4.083 8.875-7.496 13.575l-1.473 2.05-2.387 3.096L69.4 50.7c-4.979 6.116-10.63 12.27-18.852 20.512-6.303 6.321-6.508 6.489-8.578 6.489-2.088 0-2.275-.149-8.783-6.676-8.13-8.168-13.65-14.19-18.647-20.326l-2.126-2.629-2.386-3.096-1.734-2.423c-2.108-2.928-4.793-7.385-5.949-9.847-2.835-6.079-2.798-12.438.112-18.274C3.894 11.558 5.46 9.414 7.94 6.896 11.93 2.87 15.417 1.06 20.322.5zm4.96 3.003c-5.986-.84-11.151 1.081-15.738 5.856-2.443 2.535-4.606 6.116-5.594 9.23-1.026 3.245-1.026 6.788.018 10.163.95 3.058 4.438 9.043 8.296 14.246l1.585 2.126C27.877 60.888 36.856 70.59 40.788 74.23c1.195 1.107 1.118 1.036 2.251.05 6.045-5.255 23.528-24.382 28.656-31.32 5.129-6.937 8.075-12.4 8.802-16.354.839-4.624-.243-9.044-3.357-13.799-2.256-3.45-5.445-6.321-8.764-7.925-2.444-1.157-4.084-1.492-7.385-1.473-3.916.037-6.116.69-8.577 2.592-2.2 1.715-5.464 5.482-8.168 9.454-2.032 3.002-2.517 3.002-4.55 0-2.014-2.946-4.736-6.265-6.62-8.056-2.591-2.46-4.568-3.45-7.794-3.897zm38.041 3.244c.26-.28.671-.466.95-.466.597 0 2.592 1.137 4.457 2.536 1.754 1.324 4.57 4.214 4.57 4.699 0 .95-.746 1.715-1.697 1.715-.224 0-1.026-.653-1.996-1.64-1.771-1.81-3.375-3.06-5.202-4.066-.653-.373-1.268-.82-1.361-1.006a1.471 1.471 0 0 1 .279-1.772zM73.765 17.19c.28-.298.671-.466 1.025-.466.355 0 .746.168 1.026.466.298.28.465.671.465 1.025 0 .355-.167.745-.465 1.026-.28.298-.671.466-1.026.466-.354 0-.745-.168-1.025-.466a1.453 1.453 0 0 1-.466-1.026c0-.354.168-.746.466-1.025zM35.148 30.044a1.167 1.167 0 0 1 0 1.647l-7.342 7.342 7.345 7.342a1.165 1.165 0 0 1 0 1.65 1.165 1.165 0 0 1-1.65 0l-8.135-8.136c-.013-.01-.023-.02-.033-.03a1.171 1.171 0 0 1-.003-1.653c.013-.01.023-.02.033-.03l8.135-8.132a1.165 1.165 0 0 1 1.65 0zm8.895-6.448a1.17 1.17 0 0 1 .946 1.353L39.947 53.52a1.165 1.165 0 1 1-2.296-.403l5.042-28.575c.11-.633.717-1.06 1.35-.946zm13.268 14.61a1.169 1.169 0 0 1-.033 1.683l-8.136 8.136a1.165 1.165 0 0 1-1.65 0 1.165 1.165 0 0 1 0-1.65l7.342-7.342-7.342-7.339a1.165 1.165 0 0 1 0-1.65 1.165 1.165 0 0 1 1.65 0l8.135 8.132a.3.3 0 0 1 .034.03z"/>
</svg>
